<svg width="69" height="69" viewBox="0 0 69 69" fill="none" xmlns="http://www.w3.org/2000/svg">
<circle cx="34.5" cy="34.5" r="30.5" fill="#D9D9D9"/>
<circle cx="34.5" cy="34.5" r="34" stroke="#269ED9"/>
<path d="M34 35C31.7083 35 29.7465 34.1841 28.1146 32.5521C26.4826 30.9202 25.6667 28.9584 25.6667 26.6667C25.6667 24.375 26.4826 22.4132 28.1146 20.7813C29.7465 19.1493 31.7083 18.3334 34 18.3334C36.2917 18.3334 38.2535 19.1493 39.8854 20.7813C41.5174 22.4132 42.3333 24.375 42.3333 26.6667C42.3333 28.9584 41.5174 30.9202 39.8854 32.5521C38.2535 34.1841 36.2917 35 34 35ZM17.3333 51.6667V45.8334C17.3333 44.6528 17.6372 43.5677 18.2448 42.5782C18.8524 41.5886 19.6597 40.8334 20.6667 40.3125C22.8195 39.2362 25.007 38.4289 27.2292 37.8907C29.4514 37.3525 31.7083 37.0834 34 37.0834C36.2917 37.0834 38.5486 37.3525 40.7708 37.8907C42.9931 38.4289 45.1806 39.2362 47.3333 40.3125C48.3403 40.8334 49.1476 41.5886 49.7552 42.5782C50.3629 43.5677 50.6667 44.6528 50.6667 45.8334V51.6667H17.3333Z" fill="#B8B8B8"/>
</svg>
